<?xml version="1.0" encoding="UTF-8"?>
<svg xmlns="http://www.w3.org/2000/svg" xmlns:xlink="http://www.w3.org/1999/xlink" width="512px" height="512px" viewBox="0 0 512 512" version="1.1">
<g id="surface1">
<path style=" stroke:none;fill-rule:nonzero;fill:rgb(36.470589%,52.941179%,63.137257%);fill-opacity:1;" d="M 156.726562 365.167969 L 142.863281 365.167969 C 142.375 341.773438 141.023438 319.777344 138.816406 299.164062 L 138.691406 299.164062 L 117.589844 365.167969 L 107.035156 365.167969 L 86.058594 299.164062 L 85.9375 299.164062 C 84.382812 318.953125 83.402344 340.957031 82.992188 365.167969 L 70.359375 365.167969 C 71.171875 335.722656 73.21875 308.121094 76.488281 282.351562 L 93.671875 282.351562 L 113.664062 343.207031 L 113.789062 343.207031 L 133.90625 282.351562 L 150.34375 282.351562 C 153.945312 312.535156 156.070312 340.140625 156.726562 365.167969 M 216.839844 304.066406 C 211.195312 334.691406 203.75 356.945312 194.507812 370.835938 C 187.308594 381.53125 179.421875 386.882812 170.828125 386.882812 C 168.539062 386.882812 165.714844 386.191406 162.367188 384.820312 L 162.367188 377.433594 C 164.003906 377.671875 165.921875 377.804688 168.128906 377.804688 C 172.140625 377.804688 175.367188 376.699219 177.828125 374.488281 C 180.765625 371.792969 182.238281 368.765625 182.238281 365.414062 C 182.238281 363.113281 181.089844 358.417969 178.804688 351.304688 L 163.59375 304.066406 L 177.210938 304.066406 L 188.128906 339.394531 C 190.582031 347.417969 191.605469 353.015625 191.195312 356.207031 C 197.164062 340.261719 201.335938 322.875 203.710938 304.0625 L 216.839844 304.0625 Z M 216.839844 304.066406 "/>
<path style=" stroke:none;fill-rule:nonzero;fill:rgb(97.254902%,59.607846%,11.372549%);fill-opacity:1;" d="M 401.347656 365.167969 L 361.972656 365.167969 L 361.972656 282.351562 L 375.21875 282.351562 L 375.21875 354.976562 L 401.347656 354.976562 Z M 351.667969 367.171875 L 336.441406 359.65625 C 337.792969 358.546875 339.082031 357.347656 340.246094 355.957031 C 346.71875 348.355469 349.945312 337.113281 349.945312 322.226562 C 349.945312 294.828125 339.191406 281.121094 317.683594 281.121094 C 307.132812 281.121094 298.90625 284.597656 293.019531 291.554688 C 286.554688 299.160156 283.328125 310.363281 283.328125 325.171875 C 283.328125 339.730469 286.1875 350.40625 291.914062 357.183594 C 297.148438 363.320312 305.042969 366.390625 315.597656 366.390625 C 319.535156 366.390625 323.148438 365.910156 326.441406 364.9375 L 346.261719 376.476562 Z M 302.347656 348.597656 C 298.992188 343.203125 297.316406 334.539062 297.316406 322.597656 C 297.316406 301.746094 303.652344 291.308594 316.335938 291.308594 C 322.964844 291.308594 327.824219 293.804688 330.929688 298.785156 C 334.277344 304.1875 335.964844 312.773438 335.964844 324.550781 C 335.964844 345.574219 329.621094 356.085938 316.949219 356.085938 C 310.316406 356.089844 305.457031 353.601562 302.347656 348.597656 M 277.554688 342.214844 C 277.554688 349.238281 274.980469 355 269.832031 359.511719 C 264.675781 364.007812 257.765625 366.257812 249.105469 366.257812 C 241.007812 366.257812 233.152344 363.671875 225.550781 358.523438 L 229.113281 351.414062 C 235.652344 354.6875 241.574219 356.316406 246.890625 356.316406 C 251.882812 356.316406 255.78125 355.210938 258.609375 353.015625 C 261.4375 350.816406 263.121094 347.726562 263.121094 343.820312 C 263.121094 338.902344 259.691406 334.695312 253.394531 331.171875 C 247.589844 327.984375 235.980469 321.320312 235.980469 321.320312 C 229.691406 316.738281 226.539062 311.8125 226.539062 303.703125 C 226.539062 296.992188 228.890625 291.570312 233.589844 287.449219 C 238.296875 283.3125 244.367188 281.25 251.8125 281.25 C 259.5 281.25 266.488281 283.308594 272.78125 287.386719 L 269.589844 294.5 C 264.207031 292.210938 258.890625 291.070312 253.648438 291.070312 C 249.402344 291.070312 246.125 292.089844 243.847656 294.136719 C 241.546875 296.179688 240.132812 298.789062 240.132812 301.992188 C 240.132812 306.890625 243.632812 311.148438 250.101562 314.742188 C 255.984375 317.933594 267.878906 324.714844 267.878906 324.714844 C 274.332031 329.289062 277.554688 334.167969 277.554688 342.214844 "/>
<path style=" stroke:none;fill-rule:nonzero;fill:rgb(36.470589%,52.941179%,63.137257%);fill-opacity:1;" d="M 417.976562 254.613281 C 409.96875 254.410156 403.765625 255.214844 398.5625 257.417969 C 397.058594 258.019531 394.671875 258.019531 394.460938 259.917969 C 395.273438 260.722656 395.367188 262.015625 396.070312 263.125 C 397.269531 265.128906 399.363281 267.820312 401.273438 269.222656 C 403.371094 270.828125 405.476562 272.421875 407.683594 273.820312 C 411.574219 276.230469 415.984375 277.628906 419.777344 280.03125 C 421.988281 281.425781 424.183594 283.230469 426.398438 284.734375 C 427.484375 285.535156 428.179688 286.832031 429.59375 287.335938 L 429.59375 287.027344 C 428.886719 286.128906 428.683594 284.828125 427.992188 283.824219 L 424.984375 280.925781 C 422.082031 277.027344 418.472656 273.625 414.582031 270.828125 C 411.378906 268.621094 404.371094 265.621094 403.074219 261.929688 L 402.871094 261.726562 C 405.070312 261.519531 407.683594 260.722656 409.773438 260.109375 C 413.179688 259.210938 416.285156 259.414062 419.777344 258.515625 C 421.382812 258.113281 422.976562 257.609375 424.589844 257.117188 L 424.589844 256.214844 C 422.777344 254.410156 421.488281 252.015625 419.582031 250.3125 C 414.488281 245.910156 408.875 241.605469 403.074219 238.003906 C 399.964844 236 395.96875 234.707031 392.660156 233 C 391.46875 232.398438 389.460938 232.101562 388.757812 231.097656 C 386.964844 228.898438 385.953125 226 384.652344 223.394531 C 381.761719 217.894531 378.949219 211.792969 376.453125 205.976562 C 374.648438 202.078125 373.550781 198.183594 371.347656 194.574219 C 361.035156 177.566406 349.835938 167.265625 332.625 157.152344 C 328.925781 155.046875 324.527344 154.152344 319.824219 153.046875 L 312.316406 152.652344 C 310.714844 151.949219 309.109375 150.042969 307.710938 149.144531 C 302.003906 145.542969 287.300781 137.742188 283.101562 148.042969 C 280.394531 154.554688 287.101562 160.957031 289.40625 164.257812 C 291.105469 166.550781 293.308594 169.160156 294.5 171.765625 C 295.203125 173.464844 295.402344 175.269531 296.105469 177.066406 C 297.707031 181.472656 299.207031 186.371094 301.3125 190.480469 C 302.410156 192.574219 303.605469 194.777344 305.011719 196.671875 C 305.8125 197.78125 307.210938 198.269531 307.515625 200.078125 C 306.121094 202.070312 306.011719 205.082031 305.210938 207.582031 C 301.609375 218.886719 303.015625 232.894531 308.121094 241.203125 C 309.714844 243.703125 313.523438 249.210938 318.621094 247.101562 C 323.128906 245.300781 322.132812 239.597656 323.425781 234.597656 C 323.726562 233.390625 323.527344 232.597656 324.128906 231.804688 L 324.128906 232 C 325.523438 234.796875 326.933594 237.496094 328.226562 240.300781 C 331.332031 245.203125 336.738281 250.308594 341.238281 253.699219 C 343.636719 255.511719 345.535156 258.609375 348.539062 259.714844 L 348.539062 259.414062 L 348.339844 259.414062 C 347.730469 258.515625 346.84375 258.113281 346.042969 257.417969 C 344.238281 255.617188 342.242188 253.414062 340.839844 251.414062 C 336.644531 245.808594 332.933594 239.601562 329.640625 233.199219 C 328.027344 230.09375 326.636719 226.695312 325.335938 223.59375 C 324.730469 222.398438 324.730469 220.589844 323.726562 219.988281 C 322.222656 222.1875 320.027344 224.09375 318.929688 226.785156 C 317.027344 231.097656 316.828125 236.398438 316.121094 241.910156 L 315.726562 242.101562 C 312.539062 241.300781 311.429688 238.003906 310.21875 235.207031 C 307.222656 228.097656 306.71875 216.6875 309.320312 208.484375 C 310.015625 206.386719 313.03125 199.78125 311.828125 197.785156 C 311.222656 195.867188 309.21875 194.777344 308.121094 193.269531 C 306.832031 191.375 305.417969 188.972656 304.515625 186.867188 C 302.117188 181.269531 300.910156 175.0625 298.324219 169.464844 C 297.117188 166.855469 295.019531 164.15625 293.320312 161.753906 C 291.414062 159.050781 289.316406 157.152344 287.808594 153.949219 C 287.308594 152.847656 286.613281 151.050781 287.414062 149.851562 C 287.609375 149.046875 288.015625 148.75 288.8125 148.546875 C 290.109375 147.453125 293.8125 148.84375 295.113281 149.449219 C 298.824219 150.949219 301.925781 152.347656 305.019531 154.449219 C 306.421875 155.453125 307.925781 157.355469 309.722656 157.855469 L 311.828125 157.855469 C 315.023438 158.550781 318.625 158.046875 321.632812 158.953125 C 326.933594 160.65625 331.734375 163.15625 336.042969 165.851562 C 349.148438 174.164062 359.957031 185.972656 367.253906 200.078125 C 368.449219 202.378906 368.960938 204.484375 370.050781 206.878906 C 372.160156 211.789062 374.765625 216.789062 376.859375 221.59375 C 378.960938 226.292969 380.964844 231.09375 383.96875 235 C 385.464844 237.097656 391.480469 238.199219 394.175781 239.300781 C 396.171875 240.199219 399.28125 240.996094 401.082031 242.097656 C 404.484375 244.195312 407.875 246.601562 411.078125 248.910156 C 412.671875 250.109375 417.679688 252.609375 417.976562 254.613281 M 315.910156 167.660156 C 314.527344 167.644531 313.148438 167.8125 311.8125 168.164062 L 311.8125 168.363281 L 312.007812 168.363281 C 312.8125 169.960938 314.214844 171.070312 315.210938 172.464844 C 316.019531 174.070312 316.71875 175.660156 317.507812 177.265625 L 317.699219 177.066406 C 319.113281 176.066406 319.8125 174.464844 319.8125 172.0625 C 319.207031 171.355469 319.113281 170.664062 318.605469 169.960938 C 318.015625 168.960938 316.71875 168.460938 315.910156 167.660156 "/>
<path style=" stroke:none;fill-rule:nonzero;fill:rgb(97.254902%,59.607846%,11.372549%);fill-opacity:1;" d="M 427.507812 365.15625 L 429.578125 365.15625 L 429.578125 355.011719 L 426.46875 355.011719 L 423.933594 361.933594 L 421.175781 355.011719 L 418.183594 355.011719 L 418.183594 365.15625 L 420.140625 365.15625 L 420.140625 357.4375 L 420.25 357.4375 L 423.136719 365.15625 L 424.628906 365.15625 L 427.507812 357.4375 Z M 410.804688 365.15625 L 413 365.15625 L 413 356.730469 L 415.871094 356.730469 L 415.871094 355.007812 L 407.8125 355.007812 L 407.8125 356.730469 L 410.800781 356.730469 Z M 410.804688 365.15625 "/>
</g>
</svg>
